<svg height="180" viewBox="0 0 180 180" width="180" xmlns="http://www.w3.org/2000/svg" xmlns:xlink="http://www.w3.org/1999/xlink"><linearGradient id="a" gradientUnits="userSpaceOnUse" x1="30.09" x2="162.59" y1="154.28" y2="102.62"><stop offset=".08" stop-color="#fcf84a"/><stop offset=".86" stop-color="#ff318c"/></linearGradient><linearGradient id="b" gradientUnits="userSpaceOnUse" x1="18.35" x2="95.09" y1="20" y2="85.78"><stop offset=".08" stop-color="#b74af7"/><stop offset=".75" stop-color="#ff318c"/></linearGradient><linearGradient id="c" x1="26.33" x2="87.92" xlink:href="#a" y1="164.47" y2="77.09"/><path d="m165.08 108.2a18.67 18.67 0 0 0 -26.56-16.28l-109.71 52.16a10.93 10.93 0 0 0 -1.55 1 11.14 11.14 0 0 0 -2.33 15.46 10.84 10.84 0 0 0 12.2 3.93h.11.1l114.73-37.56a18.75 18.75 0 0 0 13.01-18.71z" fill="url(#a)"/><path d="m97 76.38a3.88 3.88 0 0 0 -.73-.73l-55.83-56.32a14.72 14.72 0 0 0 -10-4.33 15 15 0 0 0 -7.69 28l69.14 39.16a3.9 3.9 0 0 0 4.24-.26 4 4 0 0 0 .87-5.52z" fill="url(#b)"/><path d="m97.13 80.81a4 4 0 0 0 -.13-4.43 3.89 3.89 0 0 0 -5.47-.82 3.85 3.85 0 0 0 -.9 1l-64.93 70a11.14 11.14 0 0 0 -.71 14 10.87 10.87 0 0 0 15.3 2.33 11.16 11.16 0 0 0 2.45-2.55z" fill="url(#c)"/><path d="m60.09 60h60v60h-60z"/><g fill="#fff"><path d="m66.63 108.75h22.5v3.75h-22.5z"/><path d="m65.68 75.47 1.67-1.58a1.88 1.88 0 0 0 1.47.87c.64 0 1.06-.44 1.06-1.31v-5.93h2.58v5.94a3.48 3.48 0 0 1 -.92 2.64 3.56 3.56 0 0 1 -2.57 1 3.84 3.84 0 0 1 -3.29-1.63z"/><path d="m73.62 67.52h7.53v2.19h-5v1.43h4.49v2h-4.45v1.49h5v2.2h-7.6z"/><path d="m84.82 69.79h-2.82v-2.27h8.2v2.27h-2.78v7.09h-2.6z"/><path d="m66.72 80.58h4.42a3.45 3.45 0 0 1 2.55.83 2.09 2.09 0 0 1 .61 1.53 2.17 2.17 0 0 1 -1.45 2.09 2.27 2.27 0 0 1 1.86 2.29c0 1.68-1.31 2.68-3.54 2.68h-4.45zm5 2.89c0-.52-.41-.8-1.18-.8h-1.29v1.64h1.25c.79 0 1.24-.26 1.24-.81zm-.9 2.66h-1.57v1.73h1.62c.8 0 1.25-.31 1.25-.86 0-.53-.41-.87-1.28-.87z"/><path d="m75.54 80.58h4.15a4.14 4.14 0 0 1 3 1 2.93 2.93 0 0 1 .83 2.19 3 3 0 0 1 -1.92 2.89l2.28 3.34h-3l-1.88-2.89h-.87v2.89h-2.6zm4 4.5c.87 0 1.4-.43 1.4-1.11 0-.75-.55-1.13-1.41-1.13h-1.39v2.27z"/><path d="m87.18 80.51h2.5l4 9.44h-2.79l-.67-1.69h-3.63l-.67 1.74h-2.71zm2.28 5.73-1-2.65-1 2.65z"/><path d="m94.05 80.55h2.6v9.37h-2.6z"/><path d="m97.66 80.55h2.42l3.37 5v-5h2.55v9.37h-2.27l-3.53-5.14v5.14h-2.54z"/><path d="m106.46 88.53 1.44-1.73a4.86 4.86 0 0 0 3 1.13c.71 0 1.08-.24 1.08-.65 0-.4-.3-.6-1.59-.91-2-.46-3.53-1-3.53-2.93 0-1.74 1.38-3 3.63-3a5.88 5.88 0 0 1 3.85 1.25l-1.3 1.83a4.54 4.54 0 0 0 -2.62-.92c-.63 0-.94.25-.94.6 0 .42.32.61 1.63.91 2.15.46 3.48 1.16 3.48 2.91 0 1.91-1.51 3-3.78 3a6.56 6.56 0 0 1 -4.35-1.49z"/></g><path d="m.09 0h180v180h-180z" fill="none"/></svg>