<svg width="180" height="80" viewBox="0 0 180 80" fill="none" xmlns="http://www.w3.org/2000/svg">
<g clip-path="url(#clip0)">
<path d="M166.703 0H12.9775C6.04685 0 0.428467 5.61839 0.428467 12.549V67.451C0.428467 74.3816 6.04685 80 12.9775 80H166.703C173.634 80 179.252 74.3816 179.252 67.451V12.549C179.252 5.61839 173.634 0 166.703 0Z" fill="#0E1E25"/>
<path fill-rule="evenodd" clip-rule="evenodd" d="M69.0353 23.1535L69.1654 25.4801C70.6524 23.6809 72.6041 22.7813 75.0204 22.7813C79.2088 22.7813 81.3401 25.1822 81.4145 29.9843V43.2919H76.8977V30.2448C76.8977 28.9667 76.622 28.0207 76.0706 27.4064C75.5192 26.7923 74.6177 26.4851 73.3661 26.4851C71.5446 26.4851 70.1878 27.3102 69.2956 28.9606V43.2919H64.7787V23.1535H69.0353ZM94.8719 43.6641C92.0093 43.6641 89.689 42.7615 87.9108 40.956C86.1326 39.1507 85.2435 36.7466 85.2435 33.744V33.1855C85.2435 31.1753 85.6308 29.3794 86.4052 27.7973C87.1798 26.2153 88.267 24.9838 89.6673 24.1029C91.0676 23.2218 92.6289 22.7813 94.3514 22.7813C97.0899 22.7813 99.2058 23.6561 100.699 25.4056C102.192 27.1553 102.939 29.6306 102.939 32.832V34.656H89.7975C89.9338 36.3186 90.4883 37.6339 91.461 38.6017C92.4337 39.5695 93.6574 40.0535 95.1321 40.0535C97.2014 40.0535 98.8868 39.2158 100.188 37.5408L102.623 39.8673C101.817 41.0709 100.742 42.0045 99.3978 42.6684C98.0533 43.3322 96.5446 43.6641 94.8719 43.6641ZM94.3327 26.4108C93.0937 26.4108 92.093 26.845 91.3308 27.7135C90.5688 28.5821 90.0825 29.792 89.8719 31.3429H98.4778V31.008C98.3787 29.4941 97.9759 28.3495 97.2697 27.5739C96.5633 26.7984 95.5843 26.4108 94.3327 26.4108ZM112.102 18.2586V23.1535H115.653V26.5038H112.102V37.7455C112.102 38.5148 112.254 39.0701 112.558 39.4113C112.861 39.7524 113.403 39.9231 114.184 39.9231C114.705 39.9231 115.231 39.8611 115.764 39.7371V43.236C114.736 43.5215 113.744 43.6641 112.79 43.6641C109.32 43.6641 107.586 41.7471 107.586 37.9131V26.5038H104.277V23.1535H107.586V18.2586H112.102ZM123.905 43.2919H119.389V14.7037H123.905V43.2919ZM133.627 43.2919H129.11V23.1535H133.627V43.2919ZM128.831 17.9236C128.831 17.2287 129.051 16.6517 129.491 16.1926C129.931 15.7336 130.56 15.504 131.378 15.504C132.195 15.504 132.827 15.7336 133.273 16.1926C133.72 16.6517 133.943 17.2287 133.943 17.9236C133.943 18.6061 133.72 19.1738 133.273 19.6266C132.827 20.0795 132.195 20.306 131.378 20.306C130.56 20.306 129.931 20.0795 129.491 19.6266C129.051 19.1738 128.831 18.6061 128.831 17.9236ZM140.132 43.2919V26.5038H137.065V23.1535H140.132V21.311C140.132 19.0775 140.752 17.3528 141.991 16.1368C143.23 14.9208 144.965 14.3128 147.195 14.3128C147.989 14.3128 148.831 14.4245 149.723 14.6478L149.612 18.1841C149.116 18.0848 148.54 18.0353 147.883 18.0353C145.727 18.0353 144.649 19.1457 144.649 21.3669V23.1535H148.738V26.5038H144.649V43.2919H140.132ZM159.073 36.8149L163.163 23.1535H167.977L159.983 46.3443C158.756 49.7317 156.675 51.4254 153.738 51.4254C153.081 51.4254 152.357 51.3137 151.563 51.0905V47.5913L152.419 47.6472C153.559 47.6472 154.417 47.4393 154.993 47.0237C155.569 46.608 156.024 45.9101 156.359 44.9298L157.01 43.1989L149.946 23.1535H154.816L159.073 36.8149Z" fill="white"/>
<path d="M42.0253 24.3784C42.0202 24.3757 42.0155 24.374 42.0108 24.3721C42.002 24.3688 41.9939 24.3656 41.9862 24.3584C41.9616 24.3351 41.9518 24.2933 41.9572 24.2598L42.7757 19.2554L46.6185 23.0944L42.6227 24.7929C42.6116 24.7976 42.5997 24.8002 42.5878 24.8002C42.5799 24.8002 42.5754 24.8002 42.5715 24.7987C42.5661 24.7969 42.5617 24.7925 42.5512 24.7821C42.41 24.6253 42.2347 24.4852 42.0253 24.3784ZM47.5983 24.0733L51.7068 28.1774C52.5603 29.0303 52.9871 29.4566 53.1432 29.9496C53.1663 30.0226 53.1853 30.0963 53.2002 30.1707L43.3823 26.0177C43.3774 26.0155 43.3721 26.0135 43.3669 26.0113C43.3271 25.9953 43.2816 25.9769 43.2816 25.9363C43.2816 25.8965 43.3285 25.8773 43.3675 25.8613C43.3718 25.8596 43.3758 25.8579 43.3798 25.8563L47.5983 24.0733ZM53.0323 31.4883C52.8206 31.8864 52.4074 32.2991 51.7068 32.9991L47.0762 37.6249L41.0855 36.3785C41.0756 36.3765 41.0648 36.3747 41.0538 36.373C41.0016 36.3644 40.9442 36.355 40.9442 36.3065C40.8894 35.8014 40.6519 35.3506 40.2502 35.0441C40.2257 35.0198 40.2326 34.9815 40.2389 34.9462C40.2397 34.9412 40.2406 34.9363 40.2414 34.9316L41.3688 28.0216C41.37 28.0144 41.3711 28.0066 41.3722 27.9989C41.3796 27.946 41.3882 27.8841 41.4372 27.8841C41.941 27.8132 42.374 27.5669 42.666 27.1801C42.6748 27.1686 42.6817 27.1576 42.6947 27.1515C42.7282 27.1357 42.7696 27.1522 42.8036 27.1664L53.0323 31.4883ZM46.0105 38.6896L38.3942 46.2982L39.699 38.293C39.6995 38.2893 39.6999 38.2856 39.7004 38.2819C39.7018 38.2718 39.7031 38.262 39.7068 38.2522C39.7169 38.2265 39.7449 38.2155 39.7715 38.205C39.7757 38.2033 39.7798 38.2017 39.7838 38.2C40.0733 38.0798 40.3189 37.8889 40.5206 37.6529C40.5464 37.6229 40.5769 37.595 40.616 37.5882C40.6248 37.5868 40.638 37.5878 40.6466 37.5895L46.0105 38.6896ZM36.7824 47.9086L35.9236 48.7664L26.4329 35.0629C26.4295 35.0579 26.4257 35.0529 26.422 35.048C26.4071 35.0284 26.3917 35.0082 26.394 34.9845C26.3955 34.9672 26.4064 34.9534 26.4173 34.9396C26.4209 34.9352 26.4245 34.9307 26.4276 34.9261C26.4566 34.8845 26.4813 34.8422 26.5084 34.7958C26.5153 34.7838 26.5225 34.7715 26.5299 34.7589L26.5319 34.7555C26.5467 34.7304 26.5606 34.7065 26.5865 34.6927C26.6088 34.6808 26.6391 34.6858 26.6638 34.691L37.1791 36.8574C37.2053 36.8627 37.2408 36.8737 37.2598 36.8925C37.2734 36.906 37.2762 36.9208 37.2794 36.9376C37.2806 36.9442 37.2819 36.9512 37.2839 36.9584C37.4383 37.5012 37.834 37.9707 38.3691 38.1821C38.3989 38.1967 38.3857 38.2301 38.3719 38.2653C38.3656 38.2813 38.3591 38.2977 38.3566 38.3128C38.2243 39.1178 37.0875 46.0398 36.7824 47.9086ZM34.989 49.6991C34.3564 50.3249 33.9834 50.6557 33.5614 50.789C33.1456 50.9205 32.699 50.9205 32.2831 50.789C31.7895 50.6331 31.3627 50.2067 30.509 49.3539L20.9779 39.8323L23.4668 35.9744C23.4792 35.9553 23.4904 35.938 23.5089 35.925C23.5358 35.9057 23.5744 35.915 23.6061 35.9249C23.8623 36.0039 24.104 36.0359 24.362 36.0359C24.6949 36.0359 25.011 35.9696 25.3424 35.8367C25.3704 35.8256 25.3994 35.8188 25.4218 35.8387C25.4326 35.8483 25.4436 35.8615 25.4516 35.8733L34.989 49.6991ZM20.0587 38.914L17.8715 36.7289L22.1903 34.8888C22.2014 34.8841 22.2133 34.8816 22.2254 34.8816C22.2612 34.8816 22.2822 34.9173 22.3016 34.9507C22.3065 34.9591 22.3112 34.9671 22.3161 34.9744C22.3573 35.0369 22.3984 35.0914 22.4397 35.1457C22.443 35.15 22.4502 35.1581 22.4533 35.1625C22.4656 35.1805 22.4565 35.198 22.4447 35.2162L20.0587 38.914ZM16.9045 35.7628L14.1378 32.9991C13.6673 32.5289 13.3265 32.1885 13.0891 31.8949L21.4996 33.6373C21.5095 33.6392 21.5202 33.6411 21.5311 33.6428C21.5835 33.6513 21.6409 33.6607 21.6409 33.7093C21.6409 33.7619 21.5787 33.7865 21.5255 33.8075C21.517 33.811 21.5087 33.8143 21.501 33.8174L16.9045 35.7628ZM12.6057 30.4739C12.6153 30.2968 12.6472 30.1208 12.7013 29.9496C12.8574 29.4566 13.2842 29.0303 14.1378 28.1774L17.6789 24.64C18.2624 25.4955 22.1167 31.0577 22.5666 31.7015C22.571 31.7076 22.5757 31.7142 22.5806 31.7206C22.6093 31.7594 22.6409 31.8022 22.6089 31.8337C22.4538 32.0039 22.2987 32.1901 22.1896 32.3926C22.1766 32.4165 22.1602 32.4436 22.1371 32.4579C22.1231 32.4665 22.1087 32.4635 22.0927 32.4601L22.0902 32.4596L12.6057 30.4739ZM18.6251 23.6946L23.3854 18.9391C23.8328 19.1346 25.4612 19.8221 26.9167 20.4365C28.0199 20.9024 29.0243 21.3264 29.3395 21.4624C29.3711 21.4761 29.4 21.4885 29.414 21.5202C29.4224 21.539 29.4182 21.5641 29.414 21.5843C29.382 21.7365 29.366 21.8886 29.366 22.0408C29.366 22.5998 29.5851 23.123 29.9685 23.5197C30.0002 23.5507 29.9682 23.5964 29.9404 23.6365C29.9352 23.6439 29.93 23.6513 29.9257 23.6584L25.0933 31.1369C25.0802 31.1573 25.0682 31.176 25.0478 31.1892C25.0221 31.206 24.9862 31.1984 24.9566 31.1909C24.7682 31.1432 24.5664 31.1123 24.3802 31.1123C24.2074 31.1123 24.018 31.1446 23.8278 31.1787L23.826 31.179C23.8055 31.1827 23.7865 31.1862 23.7694 31.1738C23.7507 31.1603 23.7346 31.1388 23.7214 31.1198L18.6251 23.6946ZM24.3465 17.979L30.509 11.8226C31.3627 10.9699 31.7895 10.5435 32.2831 10.3875C32.699 10.2561 33.1456 10.2561 33.5614 10.3875C34.0551 10.5435 34.4819 10.9699 35.3355 11.8226L36.6709 13.1567L32.2883 19.9379C32.2758 19.9575 32.2642 19.9752 32.245 19.9884C32.2185 20.0066 32.181 19.9981 32.15 19.9893C31.9282 19.9263 31.7062 19.8947 31.4842 19.8947C30.9912 19.8947 30.4982 20.0751 30.1147 20.3816C30.0863 20.4097 30.0438 20.3925 30.0072 20.3765C29.4348 20.1283 24.9834 18.248 24.3465 17.979ZM37.6013 14.086L41.6488 18.1296L40.6742 24.1619C40.6734 24.1667 40.6728 24.1724 40.6723 24.1782C40.6707 24.192 40.6692 24.2072 40.6643 24.2182C40.6547 24.2394 40.6339 24.2441 40.6116 24.2493C40.6041 24.251 40.5962 24.2527 40.5889 24.2552C40.3838 24.322 40.1937 24.4163 40.0303 24.538C40.0227 24.5438 40.0163 24.5504 40.0102 24.5569C39.998 24.5699 39.9864 24.582 39.9674 24.5832C39.9548 24.5838 39.9338 24.5812 39.9222 24.5762L33.7556 21.9586C33.7515 21.957 33.7475 21.9553 33.7432 21.9534C33.7042 21.9374 33.6574 21.9183 33.6574 21.8784C33.6242 21.5492 33.5147 21.2199 33.3431 20.9318C33.3388 20.9245 33.3343 20.9173 33.3296 20.91C33.2995 20.8613 33.2671 20.8097 33.2922 20.7603L37.6013 14.086ZM33.4345 23.1986L39.2146 25.645C39.2475 25.659 39.2814 25.6733 39.2949 25.7065C39.302 25.7242 39.2987 25.7474 39.2951 25.7661C39.2787 25.8502 39.264 25.9474 39.264 26.0445V26.2069C39.264 26.2466 39.2224 26.2638 39.1845 26.2794C39.1802 26.2813 39.176 26.2828 39.1721 26.2845C38.2566 26.6747 26.3155 31.7616 26.2979 31.7616C26.2797 31.7616 26.2613 31.7616 26.243 31.7435C26.2116 31.7125 26.2433 31.6668 26.2712 31.6267C26.2764 31.6193 26.2816 31.6119 26.2861 31.605L31.0369 24.2577C31.0397 24.2535 31.0424 24.2491 31.0452 24.2447C31.0733 24.2005 31.1048 24.1509 31.1556 24.1509C31.1718 24.1533 31.1878 24.1555 31.2035 24.1578C31.3114 24.1733 31.4069 24.1871 31.5026 24.1871C32.2234 24.1871 32.891 23.8358 33.2946 23.2372C33.3053 23.2213 33.315 23.2071 33.33 23.1953C33.3589 23.1729 33.4009 23.1843 33.4345 23.1986ZM26.8146 32.9235L39.8301 27.3791C39.8301 27.3791 39.8485 27.3791 39.8667 27.3972C39.938 27.4675 39.9981 27.5161 40.0558 27.5597C40.0645 27.5661 40.0745 27.5719 40.0847 27.5779C40.1114 27.5933 40.1385 27.6091 40.1404 27.6373C40.1409 27.6471 40.1398 27.6544 40.1382 27.6642L39.0226 34.5059C39.0212 34.5145 39.0199 34.5238 39.0187 34.533C39.0116 34.5868 39.0036 34.6471 38.9536 34.6471C38.3486 34.6822 37.813 35.0256 37.4988 35.5435C37.4971 35.5464 37.4954 35.549 37.4937 35.5518C37.4792 35.5763 37.4653 35.5997 37.4397 35.6125C37.4182 35.6232 37.3895 35.6185 37.366 35.6136L26.9871 33.4747C26.9773 33.4726 26.8254 32.9252 26.8146 32.9235Z" fill="url(#paint0_radial)"/>
<path d="M73.7741 59.8483C73.7741 61.2582 73.4539 62.3843 72.8136 63.2268C72.1733 64.0638 71.314 64.4822 70.2356 64.4822C69.2357 64.4822 68.4352 64.1535 67.8343 63.4964V67.8186H65.7869V55.1976H67.6741L67.7585 56.1244C68.3595 55.3942 69.1767 55.0292 70.2101 55.0292C71.3223 55.0292 72.1929 55.4447 72.8221 56.2761C73.4567 57.1016 73.7741 58.2503 73.7741 59.722V59.8483ZM71.7352 59.6713C71.7352 58.7614 71.5526 58.0397 71.1875 57.5062C70.828 56.9725 70.3113 56.7057 69.6373 56.7057C68.8004 56.7057 68.1993 57.0511 67.8343 57.7419V61.7862C68.205 62.4938 68.8116 62.8477 69.6541 62.8477C70.3057 62.8477 70.8141 62.5865 71.1791 62.0641C71.5497 61.5361 71.7352 60.7386 71.7352 59.6713Z" fill="white"/>
<path d="M80.7883 64.3137C80.6984 64.1396 80.6196 63.856 80.5523 63.4627C79.9007 64.1424 79.1031 64.4822 78.1596 64.4822C77.2439 64.4822 76.497 64.221 75.9185 63.6986C75.3398 63.1763 75.0505 62.5303 75.0505 61.7609C75.0505 60.7892 75.4101 60.0448 76.129 59.5281C76.8537 59.0058 77.8871 58.7446 79.2295 58.7446H80.4849V58.1465C80.4849 57.6746 80.3528 57.2983 80.089 57.0174C79.825 56.731 79.4232 56.5877 78.8841 56.5877C78.4179 56.5877 78.0359 56.7057 77.7382 56.9416C77.4405 57.1719 77.2918 57.4668 77.2918 57.8263H75.2444C75.2444 57.3264 75.4101 56.8602 75.7415 56.4277C76.0728 55.9896 76.5222 55.6469 77.0894 55.3998C77.6625 55.1526 78.2999 55.0292 79.0021 55.0292C80.0692 55.0292 80.9202 55.2986 81.5549 55.8379C82.1895 56.3714 82.5153 57.1242 82.5323 58.0958V62.2073C82.5323 63.0274 82.6474 63.6819 82.8777 64.1705V64.3137H80.7883ZM78.5387 62.8393C78.9431 62.8393 79.3222 62.741 79.6761 62.5444C80.0355 62.3477 80.3051 62.0839 80.4849 61.7524V60.0337H79.3812C78.6229 60.0337 78.0527 60.1656 77.6709 60.4296C77.289 60.6936 77.0979 61.0671 77.0979 61.5503C77.0979 61.9433 77.2272 62.258 77.4855 62.4938C77.7495 62.7242 78.1006 62.8393 78.5387 62.8393Z" fill="white"/>
<path d="M89.2768 57.0681C89.0073 57.023 88.7292 57.0006 88.4428 57.0006C87.5047 57.0006 86.8729 57.3601 86.5471 58.079V64.3137H84.4997V55.1976H86.4544L86.5049 56.2171C86.9993 55.4251 87.6845 55.0292 88.5607 55.0292C88.8528 55.0292 89.0944 55.0684 89.2853 55.147L89.2768 57.0681Z" fill="white"/>
<path d="M93.3844 52.9818V55.1976H94.9935V56.7142H93.3844V61.803C93.3844 62.1512 93.4517 62.4041 93.5866 62.5612C93.727 62.7129 93.974 62.7887 94.3279 62.7887C94.5638 62.7887 94.8026 62.7606 95.0441 62.7045V64.2885C94.5779 64.4176 94.1285 64.4822 93.696 64.4822C92.1233 64.4822 91.337 63.6144 91.337 61.8789V56.7142H89.8372V55.1976H91.337V52.9818H93.3844Z" fill="white"/>
<path d="M98.2922 55.1976L98.3512 56.2508C99.0252 55.4364 99.9099 55.0292 101.005 55.0292C102.904 55.0292 103.87 56.1159 103.903 58.2897V64.3137H101.856V58.4077C101.856 57.829 101.73 57.4022 101.477 57.127C101.23 56.8461 100.823 56.7057 100.255 56.7057C99.4296 56.7057 98.8146 57.0792 98.4102 57.8263V64.3137H96.3628V55.1976H98.2922Z" fill="white"/>
<path d="M109.839 64.4822C108.542 64.4822 107.488 64.075 106.68 63.2605C105.876 62.4404 105.475 61.3509 105.475 59.9915V59.7388C105.475 58.8288 105.649 58.0172 105.997 57.3038C106.351 56.5849 106.845 56.026 107.48 55.6273C108.115 55.2285 108.822 55.0292 109.603 55.0292C110.845 55.0292 111.802 55.4251 112.476 56.2171C113.156 57.0091 113.496 58.1295 113.496 59.5786V60.4044H107.539C107.601 61.157 107.851 61.7524 108.289 62.1906C108.733 62.6287 109.289 62.8477 109.957 62.8477C110.895 62.8477 111.659 62.4685 112.249 61.7103L113.352 62.7634C112.987 63.3082 112.499 63.7324 111.886 64.0357C111.28 64.3333 110.597 64.4822 109.839 64.4822ZM109.595 56.672C109.033 56.672 108.578 56.8685 108.23 57.2618C107.887 57.6549 107.668 58.2026 107.573 58.9048H111.474V58.7531C111.429 58.0677 111.246 57.551 110.926 57.2028C110.606 56.8489 110.162 56.672 109.595 56.672Z" fill="white"/>
<path d="M119.693 57.0681C119.423 57.023 119.145 57.0006 118.859 57.0006C117.921 57.0006 117.289 57.3601 116.963 58.079V64.3137H114.916V55.1976H116.87L116.921 56.2171C117.415 55.4251 118.1 55.0292 118.977 55.0292C119.269 55.0292 119.51 55.0684 119.701 55.147L119.693 57.0681Z" fill="white"/>
</g>
<defs>
<radialGradient id="paint0_radial" cx="0" cy="0" r="1" gradientUnits="userSpaceOnUse" gradientTransform="translate(11.2431 30.0163) rotate(90) scale(40.5539 46.8679)">
<stop stop-color="#20C6B7"/>
<stop offset="1" stop-color="#4D9ABF"/>
</radialGradient>
<clipPath id="clip0">
<rect width="178.824" height="80" fill="white" transform="translate(0.428467)"/>
</clipPath>
</defs>
</svg>
